<svg xmlns="http://www.w3.org/2000/svg" xmlns:xlink="http://www.w3.org/1999/xlink" width="400" zoomAndPan="magnify" viewBox="0 0 300 74.999997" height="100" preserveAspectRatio="xMidYMid meet" version="1.0"><defs><g/></defs><path stroke-linecap="butt" transform="matrix(0.49502, 0, 0, 0.49502, 19.869473, 9.778892)" fill="none" stroke-linejoin="miter" d="M 86.868502 37.811023 L 89.677734 37.811023 L 89.677734 12.598958 L 86.868502 12.598958 L 86.868502 3.405827 L 112.585597 3.405827 C 117.407059 3.405827 121.07642 4.392214 123.617354 6.372881 C 126.158289 8.353547 127.428756 11.565224 127.428756 16.015805 C 127.428756 18.517283 126.923725 20.679445 125.913665 22.518071 C 124.911495 24.348806 123.475315 25.619273 121.605124 26.329472 L 121.668253 26.88974 C 125.258703 27.450008 127.049983 29.651625 127.049983 33.502482 L 127.049983 37.811023 L 129.677719 37.811023 L 129.677719 46.996263 L 111.914853 46.996263 L 111.914853 33.826017 C 111.914853 32.374055 111.701794 31.277192 111.275674 30.527537 C 110.849555 29.785774 110.17092 29.280744 109.247662 29.028228 C 108.340185 28.759931 107.046045 28.625782 105.36524 28.625782 L 105.36524 37.811023 L 109.058275 37.811023 L 109.058275 46.996263 L 86.868502 46.996263 Z M 108.387532 21.79209 C 109.476503 21.79209 110.289287 21.500119 110.825881 20.924069 C 111.362476 20.340127 111.630774 19.432651 111.630774 18.201639 L 111.630774 16.181518 C 111.630774 14.950506 111.362476 14.04303 110.825881 13.47487 C 110.289287 12.890929 109.476503 12.598958 108.387532 12.598958 L 105.36524 12.598958 L 105.36524 21.79209 Z M 175.154128 37.811023 L 177.403091 37.811023 L 177.403091 46.996263 L 155.44216 46.996263 L 155.44216 37.811023 L 158.795878 37.811023 L 157.904184 33.336769 L 150.289272 33.336769 L 149.389687 37.811023 L 152.751295 37.811023 L 152.751295 46.996263 L 133.583814 46.996263 L 133.583814 37.811023 L 135.832777 37.811023 L 145.294206 3.405827 L 165.692699 3.405827 Z M 151.520284 27.38688 L 156.673172 27.38688 L 154.376862 16.236755 L 153.816594 16.236755 Z M 213.812626 3.405827 L 232.190998 3.405827 L 232.190998 12.598958 L 229.389658 12.598958 L 229.389658 46.996263 L 213.646913 46.996263 L 197.233425 21.736852 L 197.233425 37.811023 L 199.908508 37.811023 L 199.908508 46.996263 L 181.538028 46.996263 L 181.538028 37.811023 L 184.347259 37.811023 L 184.347259 12.598958 L 181.538028 12.598958 L 181.538028 3.405827 L 201.770808 3.405827 L 216.503491 25.879679 L 216.503491 12.598958 L 213.812626 12.598958 Z M 258.397341 47.777482 C 251.334806 47.777482 245.889948 45.986202 242.062764 42.403643 C 238.235581 38.821083 236.318043 33.092145 236.318043 25.208936 C 236.318043 10.152717 243.640984 2.624608 258.286865 2.624608 C 261.83786 2.624608 265.128449 3.050727 268.174414 3.910857 C 271.220378 4.770987 273.493015 5.717919 274.992324 6.767435 L 274.992324 20.774138 L 261.54589 20.774138 L 261.54589 16.741786 C 261.54589 15.329279 261.222355 14.287654 260.583176 13.609019 C 259.943996 12.930385 258.997064 12.598958 257.726597 12.598958 C 256.45613 12.598958 255.509198 12.930385 254.870019 13.609019 C 254.23084 14.287654 253.907305 15.329279 253.907305 16.741786 L 253.907305 33.660304 C 253.907305 35.088593 254.23084 36.130218 254.870019 36.808853 C 255.509198 37.471705 256.45613 37.811023 257.726597 37.811023 C 258.997064 37.811023 259.943996 37.471705 260.583176 36.808853 C 261.222355 36.130218 261.54589 35.088593 261.54589 33.660304 L 261.54589 29.122922 L 274.992324 29.122922 L 274.992324 43.634654 C 273.453559 44.684171 271.188814 45.638994 268.174414 46.491232 C 265.167905 47.351362 261.90888 47.777482 258.397341 47.777482 Z M 324.280134 12.598958 L 321.478794 12.598958 L 321.478794 37.811023 L 324.280134 37.811023 L 324.280134 46.996263 L 303.092531 46.996263 L 303.092531 37.811023 L 305.791287 37.811023 L 305.791287 28.562653 L 297.955425 28.562653 L 297.955425 37.811023 L 300.630508 37.811023 L 300.630508 46.996263 L 279.458687 46.996263 L 279.458687 37.811023 L 282.260027 37.811023 L 282.260027 12.598958 L 279.458687 12.598958 L 279.458687 3.405827 L 300.630508 3.405827 L 300.630508 12.598958 L 297.955425 12.598958 L 297.955425 21.121346 L 305.791287 21.121346 L 305.791287 12.598958 L 303.092531 12.598958 L 303.092531 3.405827 L 324.280134 3.405827 Z M 349.926209 47.777482 C 343.092516 47.777482 337.81337 45.986202 334.088771 42.403643 C 330.379954 38.821083 328.525546 33.092145 328.525546 25.208936 C 328.525546 17.317836 330.379954 11.581006 334.088771 7.998447 C 337.81337 4.415888 343.092516 2.624608 349.926209 2.624608 C 356.767792 2.624608 362.046938 4.415888 365.755755 7.998447 C 369.480354 11.581006 371.334763 17.317836 371.334763 25.208936 C 371.334763 33.092145 369.480354 38.821083 365.755755 42.403643 C 362.046938 45.986202 356.767792 47.777482 349.926209 47.777482 Z M 349.926209 37.811023 C 351.196676 37.811023 352.151499 37.471705 352.790678 36.808853 C 353.429857 36.130218 353.745501 35.088593 353.745501 33.660304 L 353.745501 16.741786 C 353.745501 15.329279 353.429857 14.287654 352.790678 13.609019 C 352.151499 12.930385 351.196676 12.598958 349.926209 12.598958 C 348.663633 12.598958 347.70881 12.930385 347.069631 13.609019 C 346.430451 14.287654 346.114807 15.329279 346.114807 16.741786 L 346.114807 33.660304 C 346.114807 35.120157 346.430451 36.177565 347.069631 36.832526 C 347.70881 37.487487 348.663633 37.811023 349.926209 37.811023 Z M 413.236503 47.777482 C 407.215594 47.777482 402.591409 46.672728 399.36395 44.455329 C 396.13649 42.230038 394.518814 39.160401 394.518814 35.238524 C 394.518814 32.618679 395.307924 30.346042 396.870362 28.420614 C 398.440691 26.503076 400.405575 25.051114 402.757123 24.0884 C 400.65809 22.589091 399.087761 21.058217 398.038245 19.487889 C 396.99662 17.925451 396.475807 16.086824 396.475807 13.995683 C 396.475807 11.60468 397.241244 9.552994 398.772117 7.832734 C 400.310882 6.112474 402.425696 4.810443 405.140235 3.934531 C 407.846882 3.058619 410.940193 2.624608 414.412277 2.624608 C 417.923817 2.624608 421.135494 3.050727 424.039419 3.910857 C 426.959126 4.770987 429.121287 5.717919 430.541685 6.767435 L 430.541685 17.538787 L 418.776055 17.538787 L 418.776055 16.520835 C 418.776055 15.171457 418.45252 14.185069 417.813341 13.553781 C 417.189944 12.914602 416.243012 12.598958 414.972545 12.598958 C 412.620997 12.598958 411.445224 13.514326 411.445224 15.345061 C 411.445224 16.05526 411.729303 16.733895 412.305353 17.373074 C 412.889295 17.996471 413.812554 18.801363 415.083021 19.764077 L 424.205132 26.660898 C 424.362954 25.871788 424.433974 24.980094 424.433974 23.977924 L 424.433974 22.967864 L 437.935646 22.967864 L 437.935646 32.318817 L 434.684513 32.318817 L 434.179482 34.165334 L 439.221895 37.984627 L 432.388203 46.996263 L 428.292722 43.871387 C 424.568123 46.47545 419.541492 47.777482 413.236503 47.777482 Z M 414.680575 37.811023 C 416.519201 37.811023 418.010619 37.471705 419.17061 36.808853 L 412.060729 31.308756 C 411.35053 31.648074 410.782371 32.105757 410.372034 32.689699 C 409.961697 33.265749 409.756528 33.912819 409.756528 34.623018 C 409.756528 35.743554 410.182648 36.556338 411.019104 37.053477 C 411.855561 37.558507 413.078681 37.811023 414.680575 37.811023 Z M 414.680575 37.811023 " stroke="#5c2f00" stroke-width="4.202733" stroke-opacity="1" stroke-miterlimit="4"/><path stroke-linecap="butt" transform="matrix(0.49502, 0, 0, 0.49502, 19.869473, 9.778892)" fill="none" stroke-linejoin="miter" d="M 1.186939 102.999399 L 1.186939 93.806267 L 3.98828 93.806267 L 3.98828 68.594203 L 1.186939 68.594203 L 1.186939 59.401072 L 34.684658 59.401072 L 34.684658 73.920696 L 24.765546 73.920696 L 24.765546 68.594203 L 19.675786 68.594203 L 19.675786 77.89781 L 28.135046 77.89781 L 28.135046 84.289601 L 19.675786 84.289601 L 19.675786 93.806267 L 27.006618 93.806267 L 27.006618 102.999399 Z M 38.937961 102.999399 L 38.937961 93.806267 L 41.747193 93.806267 L 41.747193 68.594203 L 38.937961 68.594203 L 38.937961 59.401072 L 60.228149 59.401072 L 60.228149 68.594203 L 57.4347 68.594203 L 57.4347 93.806267 L 60.228149 93.806267 L 60.228149 102.999399 Z M 97.087477 59.401072 L 115.473739 59.401072 L 115.473739 68.594203 L 112.672399 68.594203 L 112.672399 102.999399 L 96.921763 102.999399 L 80.508276 77.732097 L 80.508276 93.806267 L 83.19125 93.806267 L 83.19125 102.999399 L 64.820769 102.999399 L 64.820769 93.806267 L 67.62211 93.806267 L 67.62211 68.594203 L 64.820769 68.594203 L 64.820769 59.401072 L 85.053549 59.401072 L 99.786233 81.882816 L 99.786233 68.594203 L 97.087477 68.594203 Z M 141.009339 103.780618 C 134.167755 103.780618 128.888609 101.989338 125.16401 98.406779 C 121.455193 94.816328 119.600785 89.08739 119.600785 81.212072 C 119.600785 73.320972 121.455193 67.584142 125.16401 64.001583 C 128.888609 60.419024 134.167755 58.627744 141.009339 58.627744 C 147.843031 58.627744 153.122177 60.419024 156.830994 64.001583 C 160.555593 67.584142 162.417893 73.320972 162.417893 81.212072 C 162.417893 89.08739 160.555593 94.816328 156.830994 98.406779 C 153.122177 101.989338 147.843031 103.780618 141.009339 103.780618 Z M 141.009339 93.806267 C 142.271915 93.806267 143.226738 93.474841 143.865917 92.811989 C 144.505096 92.133354 144.82074 91.083838 144.82074 89.66344 L 144.82074 72.744922 C 144.82074 71.324524 144.505096 70.282899 143.865917 69.612155 C 143.226738 68.933521 142.271915 68.594203 141.009339 68.594203 C 139.738872 68.594203 138.784048 68.933521 138.144869 69.612155 C 137.50569 70.282899 137.190046 71.324524 137.190046 72.744922 L 137.190046 89.66344 C 137.190046 91.123294 137.50569 92.180701 138.144869 92.835662 C 138.784048 93.482732 139.738872 93.806267 141.009339 93.806267 Z M 207.554984 103.780618 C 200.49245 103.780618 195.047591 101.989338 191.220407 98.406779 C 187.393224 94.816328 185.475687 89.08739 185.475687 81.212072 C 185.475687 66.155853 192.798627 58.627744 207.444509 58.627744 C 210.987613 58.627744 214.286092 59.053863 217.332057 59.913993 C 220.378022 60.766232 222.650658 61.721055 224.142076 62.770572 L 224.142076 76.777274 L 210.695642 76.777274 L 210.695642 72.744922 C 210.695642 71.324524 210.379998 70.282899 209.740819 69.612155 C 209.10164 68.933521 208.146817 68.594203 206.884241 68.594203 C 205.613774 68.594203 204.65895 68.933521 204.019771 69.612155 C 203.388483 70.282899 203.064948 71.324524 203.064948 72.744922 L 203.064948 89.66344 C 203.064948 91.083838 203.388483 92.133354 204.019771 92.811989 C 204.65895 93.474841 205.613774 93.806267 206.884241 93.806267 C 208.146817 93.806267 209.10164 93.474841 209.740819 92.811989 C 210.379998 92.133354 210.695642 91.083838 210.695642 89.66344 L 210.695642 85.118166 L 224.142076 85.118166 L 224.142076 99.63779 C 222.611203 100.687307 220.346457 101.634239 217.332057 102.494368 C 214.325548 103.354498 211.066524 103.780618 207.554984 103.780618 Z M 249.677675 103.780618 C 242.836092 103.780618 237.556946 101.989338 233.840238 98.406779 C 230.12353 94.816328 228.269121 89.08739 228.269121 81.212072 C 228.269121 73.320972 230.12353 67.584142 233.840238 64.001583 C 237.556946 60.419024 242.836092 58.627744 249.677675 58.627744 C 256.519259 58.627744 261.790514 60.419024 265.507222 64.001583 C 269.22393 67.584142 271.08623 73.320972 271.08623 81.212072 C 271.08623 89.08739 269.22393 94.816328 265.507222 98.406779 C 261.790514 101.989338 256.519259 103.780618 249.677675 103.780618 Z M 249.677675 93.806267 C 250.948143 93.806267 251.902966 93.474841 252.534254 92.811989 C 253.173433 92.133354 253.496968 91.083838 253.496968 89.66344 L 253.496968 72.744922 C 253.496968 71.324524 253.173433 70.282899 252.534254 69.612155 C 251.902966 68.933521 250.948143 68.594203 249.677675 68.594203 C 248.415099 68.594203 247.460276 68.933521 246.821097 69.612155 C 246.181918 70.282899 245.866274 71.324524 245.866274 72.744922 L 245.866274 89.66344 C 245.866274 91.123294 246.181918 92.180701 246.821097 92.835662 C 247.460276 93.482732 248.415099 93.806267 249.677675 93.806267 Z M 307.598349 59.401072 L 325.984612 59.401072 L 325.984612 68.594203 L 323.183271 68.594203 L 323.183271 102.999399 L 307.432636 102.999399 L 291.019148 77.732097 L 291.019148 93.806267 L 293.702122 93.806267 L 293.702122 102.999399 L 275.331641 102.999399 L 275.331641 93.806267 L 278.132982 93.806267 L 278.132982 68.594203 L 275.331641 68.594203 L 275.331641 59.401072 L 295.564421 59.401072 L 310.297105 81.882816 L 310.297105 68.594203 L 307.598349 68.594203 Z M 330.450974 102.999399 L 330.450974 93.806267 L 333.252315 93.806267 L 333.252315 68.594203 L 330.450974 68.594203 L 330.450974 59.401072 L 363.948693 59.401072 L 363.948693 73.920696 L 354.037472 73.920696 L 354.037472 68.594203 L 348.947712 68.594203 L 348.947712 77.89781 L 357.39908 77.89781 L 357.39908 84.289601 L 348.947712 84.289601 L 348.947712 93.806267 L 356.278544 93.806267 L 356.278544 102.999399 Z M 368.209887 102.999399 L 368.209887 93.806267 L 371.011228 93.806267 L 371.011228 68.594203 L 368.209887 68.594203 L 368.209887 59.401072 L 406.031929 59.401072 L 406.031929 76.327481 L 393.469298 76.327481 L 393.469298 68.594203 L 386.698734 68.594203 L 386.698734 77.448017 L 391.622781 77.448017 L 391.622781 83.831917 L 386.698734 83.831917 L 386.698734 93.806267 L 393.469298 93.806267 L 393.469298 84.960344 L 406.031929 84.960344 L 406.031929 102.999399 Z M 410.498292 102.999399 L 410.498292 93.806267 L 413.307523 93.806267 L 413.307523 68.594203 L 410.498292 68.594203 L 410.498292 59.401072 L 431.788479 59.401072 L 431.788479 68.594203 L 428.99503 68.594203 L 428.99503 93.806267 L 431.788479 93.806267 L 431.788479 102.999399 Z M 478.180255 72.973764 L 468.537331 72.973764 L 468.537331 68.594203 L 464.954772 68.594203 L 464.954772 93.806267 L 468.88454 93.806267 L 468.88454 102.999399 L 445.337498 102.999399 L 445.337498 93.806267 L 449.267265 93.806267 L 449.267265 68.594203 L 445.684706 68.594203 L 445.684706 72.973764 L 436.041782 72.973764 L 436.041782 59.401072 L 478.180255 59.401072 Z M 503.494904 103.780618 C 496.65332 103.780618 491.374175 101.989338 487.649575 98.406779 C 483.940758 94.816328 482.08635 89.08739 482.08635 81.212072 C 482.08635 73.320972 483.940758 67.584142 487.649575 64.001583 C 491.374175 60.419024 496.65332 58.627744 503.494904 58.627744 C 510.328596 58.627744 515.607742 60.419024 519.316559 64.001583 C 523.041158 67.584142 524.903458 73.320972 524.903458 81.212072 C 524.903458 89.08739 523.041158 94.816328 519.316559 98.406779 C 515.607742 101.989338 510.328596 103.780618 503.494904 103.780618 Z M 503.494904 93.806267 C 504.75748 93.806267 505.712303 93.474841 506.351482 92.811989 C 506.990661 92.133354 507.306305 91.083838 507.306305 89.66344 L 507.306305 72.744922 C 507.306305 71.324524 506.990661 70.282899 506.351482 69.612155 C 505.712303 68.933521 504.75748 68.594203 503.494904 68.594203 C 502.224437 68.594203 501.269614 68.933521 500.630435 69.612155 C 499.991256 70.282899 499.675612 71.324524 499.675612 72.744922 L 499.675612 89.66344 C 499.675612 91.123294 499.991256 92.180701 500.630435 92.835662 C 501.269614 93.482732 502.224437 93.806267 503.494904 93.806267 Z M 503.494904 93.806267 " stroke="#5c2f00" stroke-width="4.202733" stroke-opacity="1" stroke-miterlimit="4"/><g fill="#b76e22" fill-opacity="1"><g transform="translate(62.317413, 33.044819)"><g><path d="M 0.546875 -4.546875 L 1.9375 -4.546875 L 1.9375 -17.03125 L 0.546875 -17.03125 L 0.546875 -21.578125 L 13.28125 -21.578125 C 15.664062 -21.578125 17.488281 -21.085938 18.75 -20.109375 C 20.007812 -19.128906 20.640625 -17.539062 20.640625 -15.34375 C 20.640625 -14.101562 20.390625 -13.03125 19.890625 -12.125 C 19.390625 -11.21875 18.675781 -10.585938 17.75 -10.234375 L 17.78125 -9.953125 C 19.550781 -9.679688 20.4375 -8.59375 20.4375 -6.6875 L 20.4375 -4.546875 L 21.75 -4.546875 L 21.75 0 L 12.953125 0 L 12.953125 -6.515625 C 12.953125 -7.234375 12.84375 -7.773438 12.625 -8.140625 C 12.414062 -8.515625 12.082031 -8.765625 11.625 -8.890625 C 11.175781 -9.023438 10.535156 -9.09375 9.703125 -9.09375 L 9.703125 -4.546875 L 11.53125 -4.546875 L 11.53125 0 L 0.546875 0 Z M 11.203125 -12.484375 C 11.742188 -12.484375 12.144531 -12.625 12.40625 -12.90625 C 12.675781 -13.195312 12.8125 -13.644531 12.8125 -14.25 L 12.8125 -15.25 C 12.8125 -15.863281 12.675781 -16.3125 12.40625 -16.59375 C 12.144531 -16.882812 11.742188 -17.03125 11.203125 -17.03125 L 9.703125 -17.03125 L 9.703125 -12.484375 Z M 11.203125 -12.484375 "/></g></g></g><g fill="#b76e22" fill-opacity="1"><g transform="translate(85.665572, 33.044819)"><g><path d="M 20.90625 -4.546875 L 22.015625 -4.546875 L 22.015625 0 L 11.15625 0 L 11.15625 -4.546875 L 12.8125 -4.546875 L 12.375 -6.765625 L 8.59375 -6.765625 L 8.15625 -4.546875 L 9.8125 -4.546875 L 9.8125 0 L 0.328125 0 L 0.328125 -4.546875 L 1.4375 -4.546875 L 6.125 -21.578125 L 16.21875 -21.578125 Z M 9.203125 -9.703125 L 11.765625 -9.703125 L 10.625 -15.21875 L 10.34375 -15.21875 Z M 9.203125 -9.703125 "/></g></g></g><g fill="#b76e22" fill-opacity="1"><g transform="translate(109.180102, 33.044819)"><g><path d="M 16.53125 -21.578125 L 25.625 -21.578125 L 25.625 -17.03125 L 24.234375 -17.03125 L 24.234375 0 L 16.453125 0 L 8.3125 -12.515625 L 8.3125 -4.546875 L 9.65625 -4.546875 L 9.65625 0 L 0.546875 0 L 0.546875 -4.546875 L 1.9375 -4.546875 L 1.9375 -17.03125 L 0.546875 -17.03125 L 0.546875 -21.578125 L 10.5625 -21.578125 L 17.859375 -10.453125 L 17.859375 -17.03125 L 16.53125 -17.03125 Z M 16.53125 -21.578125 "/></g></g></g><g fill="#b76e22" fill-opacity="1"><g transform="translate(136.465755, 33.044819)"><g><path d="M 11.3125 0.390625 C 7.820312 0.390625 5.128906 -0.492188 3.234375 -2.265625 C 1.335938 -4.046875 0.390625 -6.882812 0.390625 -10.78125 C 0.390625 -18.238281 4.015625 -21.96875 11.265625 -21.96875 C 13.015625 -21.96875 14.644531 -21.753906 16.15625 -21.328125 C 17.664062 -20.898438 18.789062 -20.425781 19.53125 -19.90625 L 19.53125 -12.984375 L 12.875 -12.984375 L 12.875 -14.96875 C 12.875 -15.675781 12.710938 -16.195312 12.390625 -16.53125 C 12.078125 -16.863281 11.609375 -17.03125 10.984375 -17.03125 C 10.359375 -17.03125 9.882812 -16.863281 9.5625 -16.53125 C 9.25 -16.195312 9.09375 -15.675781 9.09375 -14.96875 L 9.09375 -6.59375 C 9.09375 -5.894531 9.25 -5.378906 9.5625 -5.046875 C 9.882812 -4.710938 10.359375 -4.546875 10.984375 -4.546875 C 11.609375 -4.546875 12.078125 -4.710938 12.390625 -5.046875 C 12.710938 -5.378906 12.875 -5.894531 12.875 -6.59375 L 12.875 -8.84375 L 19.53125 -8.84375 L 19.53125 -1.65625 C 18.769531 -1.144531 17.644531 -0.675781 16.15625 -0.25 C 14.664062 0.175781 13.050781 0.390625 11.3125 0.390625 Z M 11.3125 0.390625 "/></g></g></g><g fill="#b76e22" fill-opacity="1"><g transform="translate(157.65106, 33.044819)"><g><path d="M 22.734375 -17.03125 L 21.359375 -17.03125 L 21.359375 -4.546875 L 22.734375 -4.546875 L 22.734375 0 L 12.265625 0 L 12.265625 -4.546875 L 13.59375 -4.546875 L 13.59375 -9.125 L 9.703125 -9.125 L 9.703125 -4.546875 L 11.03125 -4.546875 L 11.03125 0 L 0.546875 0 L 0.546875 -4.546875 L 1.9375 -4.546875 L 1.9375 -17.03125 L 0.546875 -17.03125 L 0.546875 -21.578125 L 11.03125 -21.578125 L 11.03125 -17.03125 L 9.703125 -17.03125 L 9.703125 -12.8125 L 13.59375 -12.8125 L 13.59375 -17.03125 L 12.265625 -17.03125 L 12.265625 -21.578125 L 22.734375 -21.578125 Z M 22.734375 -17.03125 "/></g></g></g><g fill="#b76e22" fill-opacity="1"><g transform="translate(182.108369, 33.044819)"><g><path d="M 10.984375 0.390625 C 7.597656 0.390625 4.984375 -0.492188 3.140625 -2.265625 C 1.304688 -4.046875 0.390625 -6.882812 0.390625 -10.78125 C 0.390625 -14.6875 1.304688 -17.523438 3.140625 -19.296875 C 4.984375 -21.078125 7.597656 -21.96875 10.984375 -21.96875 C 14.367188 -21.96875 16.976562 -21.078125 18.8125 -19.296875 C 20.65625 -17.523438 21.578125 -14.6875 21.578125 -10.78125 C 21.578125 -6.882812 20.65625 -4.046875 18.8125 -2.265625 C 16.976562 -0.492188 14.367188 0.390625 10.984375 0.390625 Z M 10.984375 -4.546875 C 11.609375 -4.546875 12.078125 -4.710938 12.390625 -5.046875 C 12.710938 -5.378906 12.875 -5.894531 12.875 -6.59375 L 12.875 -14.96875 C 12.875 -15.675781 12.710938 -16.195312 12.390625 -16.53125 C 12.078125 -16.863281 11.609375 -17.03125 10.984375 -17.03125 C 10.359375 -17.03125 9.882812 -16.863281 9.5625 -16.53125 C 9.25 -16.195312 9.09375 -15.675781 9.09375 -14.96875 L 9.09375 -6.59375 C 9.09375 -5.875 9.25 -5.351562 9.5625 -5.03125 C 9.882812 -4.707031 10.359375 -4.546875 10.984375 -4.546875 Z M 10.984375 -4.546875 "/></g></g></g><g fill="#b76e22" fill-opacity="1"><g transform="translate(205.234686, 33.044819)"><g/></g></g><g fill="#b76e22" fill-opacity="1"><g transform="translate(214.718389, 33.044819)"><g><path d="M 9.703125 0.390625 C 6.722656 0.390625 4.429688 -0.15625 2.828125 -1.25 C 1.234375 -2.351562 0.4375 -3.878906 0.4375 -5.828125 C 0.4375 -7.117188 0.820312 -8.238281 1.59375 -9.1875 C 2.375 -10.144531 3.347656 -10.863281 4.515625 -11.34375 C 3.484375 -12.082031 2.707031 -12.835938 2.1875 -13.609375 C 1.675781 -14.390625 1.421875 -15.296875 1.421875 -16.328125 C 1.421875 -17.515625 1.796875 -18.53125 2.546875 -19.375 C 3.304688 -20.226562 4.351562 -20.875 5.6875 -21.3125 C 7.03125 -21.75 8.566406 -21.96875 10.296875 -21.96875 C 12.023438 -21.96875 13.609375 -21.753906 15.046875 -21.328125 C 16.492188 -20.898438 17.570312 -20.425781 18.28125 -19.90625 L 18.28125 -14.59375 L 12.453125 -14.59375 L 12.453125 -15.09375 C 12.453125 -15.75 12.296875 -16.234375 11.984375 -16.546875 C 11.671875 -16.867188 11.195312 -17.03125 10.5625 -17.03125 C 9.394531 -17.03125 8.8125 -16.578125 8.8125 -15.671875 C 8.8125 -15.316406 8.953125 -14.984375 9.234375 -14.671875 C 9.523438 -14.359375 9.988281 -13.960938 10.625 -13.484375 L 15.140625 -10.0625 C 15.210938 -10.457031 15.25 -10.90625 15.25 -11.40625 L 15.25 -11.890625 L 21.9375 -11.890625 L 21.9375 -7.265625 L 20.328125 -7.265625 L 20.078125 -6.34375 L 22.578125 -4.46875 L 19.1875 0 L 17.171875 -1.546875 C 15.316406 -0.253906 12.828125 0.390625 9.703125 0.390625 Z M 10.421875 -4.546875 C 11.328125 -4.546875 12.066406 -4.710938 12.640625 -5.046875 L 9.125 -7.765625 C 8.769531 -7.597656 8.488281 -7.367188 8.28125 -7.078125 C 8.082031 -6.796875 7.984375 -6.476562 7.984375 -6.125 C 7.984375 -5.570312 8.191406 -5.171875 8.609375 -4.921875 C 9.023438 -4.671875 9.628906 -4.546875 10.421875 -4.546875 Z M 10.421875 -4.546875 "/></g></g></g><g fill="#b76e22" fill-opacity="1"><g transform="translate(19.900412, 60.765923)"><g><path d="M 0.546875 0 L 0.546875 -4.546875 L 1.9375 -4.546875 L 1.9375 -17.03125 L 0.546875 -17.03125 L 0.546875 -21.578125 L 17.140625 -21.578125 L 17.140625 -14.390625 L 12.234375 -14.390625 L 12.234375 -17.03125 L 9.703125 -17.03125 L 9.703125 -12.421875 L 13.890625 -12.421875 L 13.890625 -9.265625 L 9.703125 -9.265625 L 9.703125 -4.546875 L 13.34375 -4.546875 L 13.34375 0 Z M 0.546875 0 "/></g></g></g><g fill="#b76e22" fill-opacity="1"><g transform="translate(38.590115, 60.765923)"><g><path d="M 0.546875 0 L 0.546875 -4.546875 L 1.9375 -4.546875 L 1.9375 -17.03125 L 0.546875 -17.03125 L 0.546875 -21.578125 L 11.09375 -21.578125 L 11.09375 -17.03125 L 9.703125 -17.03125 L 9.703125 -4.546875 L 11.09375 -4.546875 L 11.09375 0 Z M 0.546875 0 "/></g></g></g><g fill="#b76e22" fill-opacity="1"><g transform="translate(51.401294, 60.765923)"><g><path d="M 16.53125 -21.578125 L 25.625 -21.578125 L 25.625 -17.03125 L 24.234375 -17.03125 L 24.234375 0 L 16.453125 0 L 8.3125 -12.515625 L 8.3125 -4.546875 L 9.65625 -4.546875 L 9.65625 0 L 0.546875 0 L 0.546875 -4.546875 L 1.9375 -4.546875 L 1.9375 -17.03125 L 0.546875 -17.03125 L 0.546875 -21.578125 L 10.5625 -21.578125 L 17.859375 -10.453125 L 17.859375 -17.03125 L 16.53125 -17.03125 Z M 16.53125 -21.578125 "/></g></g></g><g fill="#b76e22" fill-opacity="1"><g transform="translate(78.686948, 60.765923)"><g><path d="M 10.984375 0.390625 C 7.597656 0.390625 4.984375 -0.492188 3.140625 -2.265625 C 1.304688 -4.046875 0.390625 -6.882812 0.390625 -10.78125 C 0.390625 -14.6875 1.304688 -17.523438 3.140625 -19.296875 C 4.984375 -21.078125 7.597656 -21.96875 10.984375 -21.96875 C 14.367188 -21.96875 16.976562 -21.078125 18.8125 -19.296875 C 20.65625 -17.523438 21.578125 -14.6875 21.578125 -10.78125 C 21.578125 -6.882812 20.65625 -4.046875 18.8125 -2.265625 C 16.976562 -0.492188 14.367188 0.390625 10.984375 0.390625 Z M 10.984375 -4.546875 C 11.609375 -4.546875 12.078125 -4.710938 12.390625 -5.046875 C 12.710938 -5.378906 12.875 -5.894531 12.875 -6.59375 L 12.875 -14.96875 C 12.875 -15.675781 12.710938 -16.195312 12.390625 -16.53125 C 12.078125 -16.863281 11.609375 -17.03125 10.984375 -17.03125 C 10.359375 -17.03125 9.882812 -16.863281 9.5625 -16.53125 C 9.25 -16.195312 9.09375 -15.675781 9.09375 -14.96875 L 9.09375 -6.59375 C 9.09375 -5.875 9.25 -5.351562 9.5625 -5.03125 C 9.882812 -4.707031 10.359375 -4.546875 10.984375 -4.546875 Z M 10.984375 -4.546875 "/></g></g></g><g fill="#b76e22" fill-opacity="1"><g transform="translate(101.813272, 60.765923)"><g/></g></g><g fill="#b76e22" fill-opacity="1"><g transform="translate(111.296983, 60.765923)"><g><path d="M 11.3125 0.390625 C 7.820312 0.390625 5.128906 -0.492188 3.234375 -2.265625 C 1.335938 -4.046875 0.390625 -6.882812 0.390625 -10.78125 C 0.390625 -18.238281 4.015625 -21.96875 11.265625 -21.96875 C 13.015625 -21.96875 14.644531 -21.753906 16.15625 -21.328125 C 17.664062 -20.898438 18.789062 -20.425781 19.53125 -19.90625 L 19.53125 -12.984375 L 12.875 -12.984375 L 12.875 -14.96875 C 12.875 -15.675781 12.710938 -16.195312 12.390625 -16.53125 C 12.078125 -16.863281 11.609375 -17.03125 10.984375 -17.03125 C 10.359375 -17.03125 9.882812 -16.863281 9.5625 -16.53125 C 9.25 -16.195312 9.09375 -15.675781 9.09375 -14.96875 L 9.09375 -6.59375 C 9.09375 -5.894531 9.25 -5.378906 9.5625 -5.046875 C 9.882812 -4.710938 10.359375 -4.546875 10.984375 -4.546875 C 11.609375 -4.546875 12.078125 -4.710938 12.390625 -5.046875 C 12.710938 -5.378906 12.875 -5.894531 12.875 -6.59375 L 12.875 -8.84375 L 19.53125 -8.84375 L 19.53125 -1.65625 C 18.769531 -1.144531 17.644531 -0.675781 16.15625 -0.25 C 14.664062 0.175781 13.050781 0.390625 11.3125 0.390625 Z M 11.3125 0.390625 "/></g></g></g><g fill="#b76e22" fill-opacity="1"><g transform="translate(132.482287, 60.765923)"><g><path d="M 10.984375 0.390625 C 7.597656 0.390625 4.984375 -0.492188 3.140625 -2.265625 C 1.304688 -4.046875 0.390625 -6.882812 0.390625 -10.78125 C 0.390625 -14.6875 1.304688 -17.523438 3.140625 -19.296875 C 4.984375 -21.078125 7.597656 -21.96875 10.984375 -21.96875 C 14.367188 -21.96875 16.976562 -21.078125 18.8125 -19.296875 C 20.65625 -17.523438 21.578125 -14.6875 21.578125 -10.78125 C 21.578125 -6.882812 20.65625 -4.046875 18.8125 -2.265625 C 16.976562 -0.492188 14.367188 0.390625 10.984375 0.390625 Z M 10.984375 -4.546875 C 11.609375 -4.546875 12.078125 -4.710938 12.390625 -5.046875 C 12.710938 -5.378906 12.875 -5.894531 12.875 -6.59375 L 12.875 -14.96875 C 12.875 -15.675781 12.710938 -16.195312 12.390625 -16.53125 C 12.078125 -16.863281 11.609375 -17.03125 10.984375 -17.03125 C 10.359375 -17.03125 9.882812 -16.863281 9.5625 -16.53125 C 9.25 -16.195312 9.09375 -15.675781 9.09375 -14.96875 L 9.09375 -6.59375 C 9.09375 -5.875 9.25 -5.351562 9.5625 -5.03125 C 9.882812 -4.707031 10.359375 -4.546875 10.984375 -4.546875 Z M 10.984375 -4.546875 "/></g></g></g><g fill="#b76e22" fill-opacity="1"><g transform="translate(155.608612, 60.765923)"><g><path d="M 16.53125 -21.578125 L 25.625 -21.578125 L 25.625 -17.03125 L 24.234375 -17.03125 L 24.234375 0 L 16.453125 0 L 8.3125 -12.515625 L 8.3125 -4.546875 L 9.65625 -4.546875 L 9.65625 0 L 0.546875 0 L 0.546875 -4.546875 L 1.9375 -4.546875 L 1.9375 -17.03125 L 0.546875 -17.03125 L 0.546875 -21.578125 L 10.5625 -21.578125 L 17.859375 -10.453125 L 17.859375 -17.03125 L 16.53125 -17.03125 Z M 16.53125 -21.578125 "/></g></g></g><g fill="#b76e22" fill-opacity="1"><g transform="translate(182.894262, 60.765923)"><g><path d="M 0.546875 0 L 0.546875 -4.546875 L 1.9375 -4.546875 L 1.9375 -17.03125 L 0.546875 -17.03125 L 0.546875 -21.578125 L 17.140625 -21.578125 L 17.140625 -14.390625 L 12.234375 -14.390625 L 12.234375 -17.03125 L 9.703125 -17.03125 L 9.703125 -12.421875 L 13.890625 -12.421875 L 13.890625 -9.265625 L 9.703125 -9.265625 L 9.703125 -4.546875 L 13.34375 -4.546875 L 13.34375 0 Z M 0.546875 0 "/></g></g></g><g fill="#b76e22" fill-opacity="1"><g transform="translate(201.58396, 60.765923)"><g><path d="M 0.546875 0 L 0.546875 -4.546875 L 1.9375 -4.546875 L 1.9375 -17.03125 L 0.546875 -17.03125 L 0.546875 -21.578125 L 19.28125 -21.578125 L 19.28125 -13.203125 L 13.0625 -13.203125 L 13.0625 -17.03125 L 9.703125 -17.03125 L 9.703125 -12.640625 L 12.140625 -12.640625 L 12.140625 -9.484375 L 9.703125 -9.484375 L 9.703125 -4.546875 L 13.0625 -4.546875 L 13.0625 -8.9375 L 19.28125 -8.9375 L 19.28125 0 Z M 0.546875 0 "/></g></g></g><g fill="#b76e22" fill-opacity="1"><g transform="translate(222.519693, 60.765923)"><g><path d="M 0.546875 0 L 0.546875 -4.546875 L 1.9375 -4.546875 L 1.9375 -17.03125 L 0.546875 -17.03125 L 0.546875 -21.578125 L 11.09375 -21.578125 L 11.09375 -17.03125 L 9.703125 -17.03125 L 9.703125 -4.546875 L 11.09375 -4.546875 L 11.09375 0 Z M 0.546875 0 "/></g></g></g><g fill="#b76e22" fill-opacity="1"><g transform="translate(235.330866, 60.765923)"><g><path d="M 21.25 -14.859375 L 16.46875 -14.859375 L 16.46875 -17.03125 L 14.703125 -17.03125 L 14.703125 -4.546875 L 16.640625 -4.546875 L 16.640625 0 L 4.984375 0 L 4.984375 -4.546875 L 6.9375 -4.546875 L 6.9375 -17.03125 L 5.15625 -17.03125 L 5.15625 -14.859375 L 0.390625 -14.859375 L 0.390625 -21.578125 L 21.25 -21.578125 Z M 21.25 -14.859375 "/></g></g></g><g fill="#b76e22" fill-opacity="1"><g transform="translate(258.124448, 60.765923)"><g><path d="M 10.984375 0.390625 C 7.597656 0.390625 4.984375 -0.492188 3.140625 -2.265625 C 1.304688 -4.046875 0.390625 -6.882812 0.390625 -10.78125 C 0.390625 -14.6875 1.304688 -17.523438 3.140625 -19.296875 C 4.984375 -21.078125 7.597656 -21.96875 10.984375 -21.96875 C 14.367188 -21.96875 16.976562 -21.078125 18.8125 -19.296875 C 20.65625 -17.523438 21.578125 -14.6875 21.578125 -10.78125 C 21.578125 -6.882812 20.65625 -4.046875 18.8125 -2.265625 C 16.976562 -0.492188 14.367188 0.390625 10.984375 0.390625 Z M 10.984375 -4.546875 C 11.609375 -4.546875 12.078125 -4.710938 12.390625 -5.046875 C 12.710938 -5.378906 12.875 -5.894531 12.875 -6.59375 L 12.875 -14.96875 C 12.875 -15.675781 12.710938 -16.195312 12.390625 -16.53125 C 12.078125 -16.863281 11.609375 -17.03125 10.984375 -17.03125 C 10.359375 -17.03125 9.882812 -16.863281 9.5625 -16.53125 C 9.25 -16.195312 9.09375 -15.675781 9.09375 -14.96875 L 9.09375 -6.59375 C 9.09375 -5.875 9.25 -5.351562 9.5625 -5.03125 C 9.882812 -4.707031 10.359375 -4.546875 10.984375 -4.546875 Z M 10.984375 -4.546875 "/></g></g></g></svg>